<svg version="1.1" xmlns="http://www.w3.org/2000/svg" xmlns:xlink="http://www.w3.org/1999/xlink" width="424" height="927"><defs/><g><g/><g/><g/><g/><g/><g/><g/><g/><g/><g/><g/><g/><g/><g/><g/><g/><g/><g/><g/><g/><g/><g/><g/><g/><g/><g/><g/><g/><g/><g/><g/><g/><g/><g/><g/><g/><g/><g/><g/><g><rect fill="white" stroke="none" x="0" y="0" width="424" height="927"/></g><g><text fill="black" stroke="none" font-family="sans-serif" font-size="7.5pt" font-style="normal" font-weight="normal" text-decoration="normal" x="151.73128967265822" y="11.3089869" text-anchor="start" dominant-baseline="alphabetic">Remote Simulator example</text></g><g/><g><path fill="none" stroke="black" paint-order="fill stroke markers" d=" M 20.463417442660155 44.255835402 L 20.463417442660155 927.1107460619996" stroke-miterlimit="10" stroke-width="0.62827705" stroke-dasharray="5.799480461538462,2.5131082"/><path fill="none" stroke="black" paint-order="fill stroke markers" d=" M 66.01776239878124 44.255835402 L 66.01776239878124 927.1107460619996" stroke-miterlimit="10" stroke-width="0.62827705" stroke-dasharray="5.799480461538462,2.5131082"/><path fill="none" stroke="black" paint-order="fill stroke markers" d=" M 137.72578011342966 44.255835402 L 137.72578011342966 927.1107460619996" stroke-miterlimit="10" stroke-width="0.62827705" stroke-dasharray="5.799480461538462,2.5131082"/><path fill="none" stroke="black" paint-order="fill stroke markers" d=" M 200.1186870812695 44.255835402 L 200.1186870812695 927.1107460619996" stroke-miterlimit="10" stroke-width="0.62827705" stroke-dasharray="5.799480461538462,2.5131082"/><path fill="none" stroke="black" paint-order="fill stroke markers" d=" M 284.0182941513867 44.255835402 L 284.0182941513867 927.1107460619996" stroke-miterlimit="10" stroke-width="0.62827705" stroke-dasharray="5.799480461538462,2.5131082"/><path fill="none" stroke="black" paint-order="fill stroke markers" d=" M 386.02137107013675 44.255835402 L 386.02137107013675 927.1107460619996" stroke-miterlimit="10" stroke-width="0.62827705" stroke-dasharray="5.799480461538462,2.5131082"/></g><g><path fill="none" stroke="none"/><g><path fill="white" stroke="black" paint-order="fill stroke markers" d=" M 3.7696623000000002 23.899658982000002 L 37.15717258532031 23.899658982000002 L 37.15717258532031 44.255835402 L 3.7696623000000002 44.255835402 L 3.7696623000000002 23.899658982000002 Z" stroke-miterlimit="10" stroke-width="1.2062919360000002" stroke-dasharray=""/></g><g><g/><text fill="black" stroke="none" font-family="sans-serif" font-size="5pt" font-style="normal" font-weight="normal" text-decoration="normal" x="11.949829491" y="36.71651080200001" text-anchor="start" dominant-baseline="alphabetic">Client</text></g><path fill="none" stroke="none"/><g><path fill="white" stroke="black" paint-order="fill stroke markers" d=" M 44.69649718532031 23.899658982000002 L 87.33902761224218 23.899658982000002 L 87.33902761224218 44.255835402 L 44.69649718532031 44.255835402 L 44.69649718532031 23.899658982000002 Z" stroke-miterlimit="10" stroke-width="1.2062919360000002" stroke-dasharray=""/></g><g><g/><text fill="black" stroke="none" font-family="sans-serif" font-size="5pt" font-style="normal" font-weight="normal" text-decoration="normal" x="52.876664376320306" y="36.71651080200001" text-anchor="start" dominant-baseline="alphabetic">Executor</text></g><path fill="none" stroke="none"/><g><path fill="white" stroke="black" paint-order="fill stroke markers" d=" M 116.77686750006639 23.899658982000002 L 158.67469272679295 23.899658982000002 L 158.67469272679295 44.255835402 L 116.77686750006639 44.255835402 L 116.77686750006639 23.899658982000002 Z" stroke-miterlimit="10" stroke-width="1.2062919360000002" stroke-dasharray=""/></g><g><g/><text fill="black" stroke="none" font-family="sans-serif" font-size="5pt" font-style="normal" font-weight="normal" text-decoration="normal" x="124.95703469106638" y="36.71651080200001" text-anchor="start" dominant-baseline="alphabetic">Services</text></g><path fill="none" stroke="none"/><g><path fill="white" stroke="black" paint-order="fill stroke markers" d=" M 166.21401732679294 23.899658982000002 L 234.02335683574609 23.899658982000002 L 234.02335683574609 44.255835402 L 166.21401732679294 44.255835402 L 166.21401732679294 23.899658982000002 Z" stroke-miterlimit="10" stroke-width="1.2062919360000002" stroke-dasharray=""/></g><g><g/><text fill="black" stroke="none" font-family="sans-serif" font-size="5pt" font-style="normal" font-weight="normal" text-decoration="normal" x="174.39418451779295" y="36.71651080200001" text-anchor="start" dominant-baseline="alphabetic">RemoteSimulator</text></g><path fill="none" stroke="none"/><g><path fill="white" stroke="black" paint-order="fill stroke markers" d=" M 251.96562177239844 23.899658982000002 L 316.070966530375 23.899658982000002 L 316.070966530375 44.255835402 L 251.96562177239844 44.255835402 L 251.96562177239844 23.899658982000002 Z" stroke-miterlimit="10" stroke-width="1.2062919360000002" stroke-dasharray=""/></g><g><g/><text fill="black" stroke="none" font-family="sans-serif" font-size="5pt" font-style="normal" font-weight="normal" text-decoration="normal" x="260.14578896339845" y="36.71651080200001" text-anchor="start" dominant-baseline="alphabetic">SimulatorServer</text></g><path fill="none" stroke="none"/><g><path fill="white" stroke="black" paint-order="fill stroke markers" d=" M 351.74435634495705 23.899658982000002 L 420.29838579531645 23.899658982000002 L 420.29838579531645 44.255835402 L 351.74435634495705 44.255835402 L 351.74435634495705 23.899658982000002 Z" stroke-miterlimit="10" stroke-width="1.2062919360000002" stroke-dasharray=""/></g><g><g/><text fill="black" stroke="none" font-family="sans-serif" font-size="5pt" font-style="normal" font-weight="normal" text-decoration="normal" x="359.92452353595706" y="36.71651080200001" text-anchor="start" dominant-baseline="alphabetic">RemoteExecutive</text></g></g><g><path fill="white" stroke="black" paint-order="fill stroke markers" d=" M 62.248100098781244 69.13560658200001 L 69.78742469878125 69.13560658200001 L 69.78742469878125 900.7231099619996 L 62.248100098781244 900.7231099619996 L 62.248100098781244 69.13560658200001" stroke-miterlimit="10" stroke-width="0.62827705" stroke-dasharray=""/><path fill="white" stroke="black" paint-order="fill stroke markers" d=" M 196.34902478126952 121.15694632200001 L 203.8883493812695 121.15694632200001 L 203.8883493812695 900.7231099619996 L 196.34902478126952 900.7231099619996 L 196.34902478126952 121.15694632200001" stroke-miterlimit="10" stroke-width="0.62827705" stroke-dasharray=""/><path fill="white" stroke="black" paint-order="fill stroke markers" d=" M 280.24863185138673 142.26705520200002 L 287.7879564513867 142.26705520200002 L 287.7879564513867 879.6130010819996 L 280.24863185138673 879.6130010819996 L 280.24863185138673 142.26705520200002" stroke-miterlimit="10" stroke-width="0.62827705" stroke-dasharray=""/><path fill="white" stroke="black" paint-order="fill stroke markers" d=" M 382.25170877013676 330.750170202 L 389.79103337013674 330.750170202 L 389.79103337013674 837.3927833219997 L 382.25170877013676 837.3927833219997 L 382.25170877013676 330.750170202" stroke-miterlimit="10" stroke-width="0.62827705" stroke-dasharray=""/><path fill="white" stroke="black" paint-order="fill stroke markers" d=" M 133.95611781342967 372.97038796199996 L 141.49544241342966 372.97038796199996 L 141.49544241342966 900.7231099619996 L 133.95611781342967 900.7231099619996 L 133.95611781342967 372.97038796199996" stroke-miterlimit="10" stroke-width="0.62827705" stroke-dasharray=""/><g><g><rect fill="white" stroke="none" x="35.96806991958788" y="59.334484602" width="10.775377702265626" height="9.801121980000001"/></g><text fill="black" stroke="none" font-family="sans-serif" font-size="5pt" font-style="normal" font-weight="normal" text-decoration="normal" x="37.098968609587885" y="66.119876742" text-anchor="start" dominant-baseline="alphabetic">init</text></g><g><path fill="none" stroke="black" paint-order="fill stroke markers" d=" M 20.463417442660155 69.13560658200001 L 60.99154599878124 69.13560658200001" stroke-miterlimit="10" stroke-width="0.62827705" stroke-dasharray=""/><g transform="translate(62.248100098781244,69.13560658200001) translate(-62.248100098781244,-69.13560658200001)"><path fill="black" stroke="none" paint-order="stroke fill markers" d=" M 55.965329598781246 65.99422133200001 L 62.248100098781244 69.13560658200001 L 55.965329598781246 72.27699183200001 Z"/></g></g><g><g><rect fill="white" stroke="none" x="146.64731422342965" y="80.44459348200002" width="2.26179738" height="9.801121980000001"/></g><text fill="black" stroke="none" font-family="sans-serif" font-size="5pt" font-style="normal" font-weight="normal" text-decoration="normal" x="147.77821291342966" y="87.22998562200002" text-anchor="start" dominant-baseline="alphabetic"></text></g><g><path fill="none" stroke="black" paint-order="fill stroke markers" d=" M 137.72578011342966 90.245715462 L 167.88307851342967 90.245715462 L 167.88307851342967 100.04683744200001 L 138.98233421342965 100.04683744200001" stroke-miterlimit="10" stroke-width="0.62827705" stroke-dasharray=""/><g transform="translate(137.72578011342966,100.04683744200001) translate(-137.72578011342966,-100.04683744200001)"><path fill="black" stroke="none" paint-order="stroke fill markers" d=" M 144.00855061342966 96.90545219200001 L 137.72578011342966 100.04683744200001 L 144.00855061342966 103.18822269200001 Z"/></g></g><g><g><rect fill="white" stroke="none" x="103.01853226083203" y="111.355824342" width="10.775377702265626" height="9.801121980000001"/></g><text fill="black" stroke="none" font-family="sans-serif" font-size="5pt" font-style="normal" font-weight="normal" text-decoration="normal" x="104.14943095083203" y="118.141216482" text-anchor="start" dominant-baseline="alphabetic">init</text></g><g><path fill="none" stroke="black" paint-order="fill stroke markers" d=" M 20.463417442660155 121.15694632200001 L 195.09247068126953 121.15694632200001" stroke-miterlimit="10" stroke-width="0.62827705" stroke-dasharray=""/><g transform="translate(196.34902478126952,121.15694632200001) translate(-196.34902478126952,-121.15694632200001)"><path fill="black" stroke="none" paint-order="stroke fill markers" d=" M 190.06625428126952 118.01556107200001 L 196.34902478126952 121.15694632200001 L 190.06625428126952 124.29833157200001 Z"/></g></g><g><g><rect fill="white" stroke="none" x="229.27449835943358" y="132.46593322200002" width="25.587984513789063" height="9.801121980000001"/></g><text fill="black" stroke="none" font-family="sans-serif" font-size="5pt" font-style="normal" font-weight="normal" text-decoration="normal" x="230.4053970494336" y="139.25132536200005" text-anchor="start" dominant-baseline="alphabetic">connect</text></g><g><path fill="none" stroke="black" paint-order="fill stroke markers" d=" M 203.8883493812695 142.26705520200002 L 278.9920777513867 142.26705520200002" stroke-miterlimit="10" stroke-width="0.62827705" stroke-dasharray=""/><g transform="translate(280.24863185138673,142.26705520200002) translate(-280.24863185138673,-142.26705520200002)"><path fill="black" stroke="none" paint-order="stroke fill markers" d=" M 273.9658613513867 139.125669952 L 280.24863185138673 142.26705520200002 L 273.9658613513867 145.40844045200004 Z"/></g></g><g><g><rect fill="white" stroke="none" x="215.7675479810156" y="153.57604210200003" width="52.601885270625" height="9.801121980000001"/></g><text fill="black" stroke="none" font-family="sans-serif" font-size="5pt" font-style="normal" font-weight="normal" text-decoration="normal" x="216.89844667101562" y="160.36143424200003" text-anchor="start" dominant-baseline="alphabetic">wait for message</text></g><g><path fill="none" stroke="black" paint-order="fill stroke markers" d=" M 203.8883493812695 163.37716408200004 L 278.9920777513867 163.37716408200004" stroke-miterlimit="10" stroke-width="0.62827705" stroke-dasharray=""/><g transform="translate(280.24863185138673,163.37716408200004) translate(-280.24863185138673,-163.37716408200004)"><path fill="black" stroke="none" paint-order="stroke fill markers" d=" M 273.9658613513867 160.23577883200002 L 280.24863185138673 163.37716408200004 L 273.9658613513867 166.51854933200005 Z"/></g></g><g><g><rect fill="white" stroke="none" x="212.80988349126952" y="174.68615098200004" width="58.517214250117185" height="9.801121980000001"/></g><text fill="black" stroke="none" font-family="sans-serif" font-size="5pt" font-style="normal" font-weight="normal" text-decoration="normal" x="213.94078218126953" y="181.47154312200007" text-anchor="start" dominant-baseline="alphabetic">SENDING_PDDLS</text></g><g><path fill="none" stroke="black" paint-order="fill stroke markers" d=" M 280.24863185138673 184.48727296200005 L 205.1449034812695 184.48727296200005" stroke-miterlimit="10" stroke-width="0.62827705" stroke-dasharray="3.01572984"/><g transform="translate(203.8883493812695,184.48727296200005) translate(-203.8883493812695,-184.48727296200005)"><path fill="black" stroke="none" paint-order="stroke fill markers" d=" M 210.1711198812695 181.34588771200004 L 203.8883493812695 184.48727296200005 L 210.1711198812695 187.62865821200006 Z"/></g></g><g><g><rect fill="white" stroke="none" x="222.79499854253905" y="195.79625986200006" width="38.54698414757812" height="9.801121980000001"/></g><text fill="black" stroke="none" font-family="sans-serif" font-size="5pt" font-style="normal" font-weight="normal" text-decoration="normal" x="223.92589723253906" y="202.58165200200006" text-anchor="start" dominant-baseline="alphabetic">domain.pddl</text></g><g><path fill="none" stroke="black" paint-order="fill stroke markers" d=" M 280.24863185138673 205.59738184200006 L 205.1449034812695 205.59738184200006" stroke-miterlimit="10" stroke-width="0.62827705" stroke-dasharray="3.01572984"/><g transform="translate(203.8883493812695,205.59738184200006) translate(-203.8883493812695,-205.59738184200006)"><path fill="black" stroke="none" paint-order="stroke fill markers" d=" M 210.1711198812695 202.45599659200005 L 203.8883493812695 205.59738184200006 L 210.1711198812695 208.73876709200007 Z"/></g></g><g><g><rect fill="white" stroke="none" x="212.8098834912695" y="216.90636874200004" width="54.46524281457031" height="9.801121980000001"/></g><text fill="black" stroke="none" font-family="sans-serif" font-size="5pt" font-style="normal" font-weight="normal" text-decoration="normal" x="213.9407821812695" y="223.69176088200004" text-anchor="start" dominant-baseline="alphabetic">save domain.pddl</text></g><g><path fill="none" stroke="black" paint-order="fill stroke markers" d=" M 203.8883493812695 226.70749072200005 L 234.0456477812695 226.70749072200005 L 234.0456477812695 236.50861270200005 L 205.1449034812695 236.50861270200005" stroke-miterlimit="10" stroke-width="0.62827705" stroke-dasharray=""/><g transform="translate(203.8883493812695,236.50861270200005) translate(-203.8883493812695,-236.50861270200005)"><path fill="black" stroke="none" paint-order="stroke fill markers" d=" M 210.1711198812695 233.36722745200004 L 203.8883493812695 236.50861270200005 L 210.1711198812695 239.64999795200006 Z"/></g></g><g><g><rect fill="white" stroke="none" x="221.68608893560545" y="247.81759960200003" width="40.76480336144531" height="9.801121980000001"/></g><text fill="black" stroke="none" font-family="sans-serif" font-size="5pt" font-style="normal" font-weight="normal" text-decoration="normal" x="222.81698762560546" y="254.60299174200003" text-anchor="start" dominant-baseline="alphabetic">problem.pddl</text></g><g><path fill="none" stroke="black" paint-order="fill stroke markers" d=" M 280.24863185138673 257.61872158200003 L 205.1449034812695 257.61872158200003" stroke-miterlimit="10" stroke-width="0.62827705" stroke-dasharray="3.01572984"/><g transform="translate(203.8883493812695,257.61872158200003) translate(-203.8883493812695,-257.61872158200003)"><path fill="black" stroke="none" paint-order="stroke fill markers" d=" M 210.1711198812695 254.47733633200002 L 203.8883493812695 257.61872158200003 L 210.1711198812695 260.760106832 Z"/></g></g><g><g><rect fill="white" stroke="none" x="212.8098834912695" y="268.927708482" width="56.6830620284375" height="9.801121980000001"/></g><text fill="black" stroke="none" font-family="sans-serif" font-size="5pt" font-style="normal" font-weight="normal" text-decoration="normal" x="213.9407821812695" y="275.713100622" text-anchor="start" dominant-baseline="alphabetic">save problem.pddl</text></g><g><path fill="none" stroke="black" paint-order="fill stroke markers" d=" M 203.8883493812695 278.728830462 L 234.0456477812695 278.728830462 L 234.0456477812695 288.529952442 L 205.1449034812695 288.529952442" stroke-miterlimit="10" stroke-width="0.62827705" stroke-dasharray=""/><g transform="translate(203.8883493812695,288.529952442) translate(-203.8883493812695,-288.529952442)"><path fill="black" stroke="none" paint-order="stroke fill markers" d=" M 210.1711198812695 285.38856719200004 L 203.8883493812695 288.529952442 L 210.1711198812695 291.671337692 Z"/></g></g><g><g><rect fill="white" stroke="none" x="215.7675479810156" y="299.838939342" width="52.601885270625" height="9.801121980000001"/></g><text fill="black" stroke="none" font-family="sans-serif" font-size="5pt" font-style="normal" font-weight="normal" text-decoration="normal" x="216.89844667101562" y="306.624331482" text-anchor="start" dominant-baseline="alphabetic">wait for message</text></g><g><path fill="none" stroke="black" paint-order="fill stroke markers" d=" M 203.8883493812695 309.640061322 L 278.9920777513867 309.640061322" stroke-miterlimit="10" stroke-width="0.62827705" stroke-dasharray=""/><g transform="translate(280.24863185138673,309.640061322) translate(-280.24863185138673,-309.640061322)"><path fill="black" stroke="none" paint-order="stroke fill markers" d=" M 273.9658613513867 306.498676072 L 280.24863185138673 309.640061322 L 273.9658613513867 312.781446572 Z"/></g></g><g><g><rect fill="white" stroke="none" x="329.63214375962895" y="320.949048222" width="10.775377702265626" height="9.801121980000001"/></g><text fill="black" stroke="none" font-family="sans-serif" font-size="5pt" font-style="normal" font-weight="normal" text-decoration="normal" x="330.7630424496289" y="327.734440362" text-anchor="start" dominant-baseline="alphabetic">init</text></g><g><path fill="none" stroke="black" paint-order="fill stroke markers" d=" M 287.7879564513867 330.750170202 L 380.99515467013674 330.750170202" stroke-miterlimit="10" stroke-width="0.62827705" stroke-dasharray=""/><g transform="translate(382.25170877013676,330.750170202) translate(-382.25170877013676,-330.750170202)"><path fill="black" stroke="none" paint-order="stroke fill markers" d=" M 375.96893827013673 327.608784952 L 382.25170877013676 330.750170202 L 375.96893827013673 333.891555452 Z"/></g></g><g><g><rect fill="white" stroke="none" x="256.9660774071875" y="342.059157102" width="72.20790333703125" height="9.801121980000001"/></g><text fill="black" stroke="none" font-family="sans-serif" font-size="5pt" font-style="normal" font-weight="normal" text-decoration="normal" x="258.0969760971875" y="348.84454924199997" text-anchor="start" dominant-baseline="alphabetic">INITILIZE_EXECUTIVE</text></g><g><path fill="none" stroke="black" paint-order="fill stroke markers" d=" M 382.25170877013676 351.860279082 L 205.1449034812695 351.860279082" stroke-miterlimit="10" stroke-width="0.62827705" stroke-dasharray="3.01572984"/><g transform="translate(203.8883493812695,351.860279082) translate(-203.8883493812695,-351.860279082)"><path fill="black" stroke="none" paint-order="stroke fill markers" d=" M 210.1711198812695 348.718893832 L 203.8883493812695 351.860279082 L 210.1711198812695 355.00166433199996 Z"/></g></g><g><g><rect fill="white" stroke="none" x="163.53454474621677" y="363.16926598199996" width="10.775377702265626" height="9.801121980000001"/></g><text fill="black" stroke="none" font-family="sans-serif" font-size="5pt" font-style="normal" font-weight="normal" text-decoration="normal" x="164.66544343621678" y="369.95465812199996" text-anchor="start" dominant-baseline="alphabetic">init</text></g><g><path fill="none" stroke="black" paint-order="fill stroke markers" d=" M 196.34902478126952 372.97038796199996 L 142.75199651342965 372.97038796199996" stroke-miterlimit="10" stroke-width="0.62827705" stroke-dasharray=""/><g transform="translate(141.49544241342966,372.97038796199996) translate(-141.49544241342966,-372.97038796199996)"><path fill="black" stroke="none" paint-order="stroke fill markers" d=" M 147.77821291342966 369.829002712 L 141.49544241342966 372.97038796199996 L 147.77821291342966 376.11177321199995 Z"/></g></g><g><g><rect fill="white" stroke="none" x="120.09213409445898" y="384.27937486199994" width="25.952181291132813" height="9.801121980000001"/></g><text fill="black" stroke="none" font-family="sans-serif" font-size="5pt" font-style="normal" font-weight="normal" text-decoration="normal" x="121.22303278445898" y="391.06476700199994" text-anchor="start" dominant-baseline="alphabetic">initialize</text></g><g><path fill="none" stroke="black" paint-order="fill stroke markers" d=" M 196.34902478126952 394.08049684199995 L 71.04397879878125 394.08049684199995" stroke-miterlimit="10" stroke-width="0.62827705" stroke-dasharray=""/><g transform="translate(69.78742469878125,394.08049684199995) translate(-69.78742469878125,-394.08049684199995)"><path fill="black" stroke="none" paint-order="stroke fill markers" d=" M 76.07019519878125 390.93911159199996 L 69.78742469878125 394.08049684199995 L 76.07019519878125 397.22188209199993 Z"/></g></g><g><g><rect fill="white" stroke="none" x="215.7675479810156" y="405.3894837419999" width="52.601885270625" height="9.801121980000001"/></g><text fill="black" stroke="none" font-family="sans-serif" font-size="5pt" font-style="normal" font-weight="normal" text-decoration="normal" x="216.89844667101562" y="412.1748758819999" text-anchor="start" dominant-baseline="alphabetic">wait for message</text></g><g><path fill="none" stroke="black" paint-order="fill stroke markers" d=" M 203.8883493812695 415.19060572199993 L 278.9920777513867 415.19060572199993" stroke-miterlimit="10" stroke-width="0.62827705" stroke-dasharray=""/><g transform="translate(280.24863185138673,415.19060572199993) translate(-280.24863185138673,-415.19060572199993)"><path fill="black" stroke="none" paint-order="stroke fill markers" d=" M 273.9658613513867 412.04922047199994 L 280.24863185138673 415.19060572199993 L 273.9658613513867 418.3319909719999 Z"/></g></g><g><g><rect fill="white" stroke="none" x="316.856882834336" y="426.4995926219999" width="36.32589955285156" height="9.801121980000001"/></g><text fill="black" stroke="none" font-family="sans-serif" font-size="5pt" font-style="normal" font-weight="normal" text-decoration="normal" x="317.98778152433596" y="433.2849847619999" text-anchor="start" dominant-baseline="alphabetic">next_action</text></g><g><path fill="none" stroke="black" paint-order="fill stroke markers" d=" M 287.7879564513867 436.3007146019999 L 380.99515467013674 436.3007146019999" stroke-miterlimit="10" stroke-width="0.62827705" stroke-dasharray=""/><g transform="translate(382.25170877013676,436.3007146019999) translate(-382.25170877013676,-436.3007146019999)"><path fill="black" stroke="none" paint-order="stroke fill markers" d=" M 375.96893827013673 433.15932935199993 L 382.25170877013676 436.3007146019999 L 375.96893827013673 439.4420998519999 Z"/></g></g><g><g><rect fill="white" stroke="none" x="268.62592085201175" y="447.6097015019999" width="48.88821644738281" height="9.801121980000001"/></g><text fill="black" stroke="none" font-family="sans-serif" font-size="5pt" font-style="normal" font-weight="normal" text-decoration="normal" x="269.7568195420117" y="454.3950936419999" text-anchor="start" dominant-baseline="alphabetic">NEXT_ACTION</text></g><g><path fill="none" stroke="black" paint-order="fill stroke markers" d=" M 382.25170877013676 457.4108234819999 L 205.1449034812695 457.4108234819999" stroke-miterlimit="10" stroke-width="0.62827705" stroke-dasharray="3.01572984"/><g transform="translate(203.8883493812695,457.4108234819999) translate(-203.8883493812695,-457.4108234819999)"><path fill="black" stroke="none" paint-order="stroke fill markers" d=" M 210.1711198812695 454.2694382319999 L 203.8883493812695 457.4108234819999 L 210.1711198812695 460.5522087319999 Z"/></g></g><g><g><rect fill="white" stroke="none" x="114.90527496359961" y="468.7198103819999" width="36.32589955285156" height="9.801121980000001"/></g><text fill="black" stroke="none" font-family="sans-serif" font-size="5pt" font-style="normal" font-weight="normal" text-decoration="normal" x="116.0361736535996" y="475.5052025219999" text-anchor="start" dominant-baseline="alphabetic">next_action</text></g><g><path fill="none" stroke="black" paint-order="fill stroke markers" d=" M 196.34902478126952 478.5209323619999 L 71.04397879878125 478.5209323619999" stroke-miterlimit="10" stroke-width="0.62827705" stroke-dasharray=""/><g transform="translate(69.78742469878125,478.5209323619999) translate(-69.78742469878125,-478.5209323619999)"><path fill="black" stroke="none" paint-order="stroke fill markers" d=" M 76.07019519878125 475.3795471119999 L 69.78742469878125 478.5209323619999 L 76.07019519878125 481.66231761199987 Z"/></g></g><g><g><rect fill="white" stroke="none" x="78.70895880878125" y="489.82991926199986" width="46.325624894648435" height="9.801121980000001"/></g><text fill="black" stroke="none" font-family="sans-serif" font-size="5pt" font-style="normal" font-weight="normal" text-decoration="normal" x="79.83985749878124" y="496.61531140199986" text-anchor="start" dominant-baseline="alphabetic">get_perception</text></g><g><path fill="none" stroke="black" paint-order="fill stroke markers" d=" M 69.78742469878125 499.63104124199987 L 132.69956371342968 499.63104124199987" stroke-miterlimit="10" stroke-width="0.62827705" stroke-dasharray=""/><g transform="translate(133.95611781342967,499.63104124199987) translate(-133.95611781342967,-499.63104124199987)"><path fill="black" stroke="none" paint-order="stroke fill markers" d=" M 127.67334731342967 496.4896559919999 L 133.95611781342967 499.63104124199987 L 127.67334731342967 502.77242649199985 Z"/></g></g><g><g><rect fill="white" stroke="none" x="154.09089545422458" y="510.9400281419999" width="29.66267628625" height="9.801121980000001"/></g><text fill="black" stroke="none" font-family="sans-serif" font-size="5pt" font-style="normal" font-weight="normal" text-decoration="normal" x="155.2217941442246" y="517.725420282" text-anchor="start" dominant-baseline="alphabetic">get_state</text></g><g><path fill="none" stroke="black" paint-order="fill stroke markers" d=" M 141.49544241342966 520.7411501219999 L 195.09247068126953 520.7411501219999" stroke-miterlimit="10" stroke-width="0.62827705" stroke-dasharray=""/><g transform="translate(196.34902478126952,520.7411501219999) translate(-196.34902478126952,-520.7411501219999)"><path fill="black" stroke="none" paint-order="stroke fill markers" d=" M 190.06625428126952 517.5997648719999 L 196.34902478126952 520.7411501219999 L 190.06625428126952 523.8825353719999 Z"/></g></g><g><g><rect fill="white" stroke="none" x="252.34180219966797" y="532.050137022" width="81.45645375207032" height="9.801121980000001"/></g><text fill="black" stroke="none" font-family="sans-serif" font-size="5pt" font-style="normal" font-weight="normal" text-decoration="normal" x="253.47270088966798" y="538.835529162" text-anchor="start" dominant-baseline="alphabetic">PERCEPTION_REQUEST</text></g><g><path fill="none" stroke="black" paint-order="fill stroke markers" d=" M 203.8883493812695 541.8512590019999 L 380.99515467013674 541.8512590019999" stroke-miterlimit="10" stroke-width="0.62827705" stroke-dasharray=""/><g transform="translate(382.25170877013676,541.8512590019999) translate(-382.25170877013676,-541.8512590019999)"><path fill="black" stroke="none" paint-order="stroke fill markers" d=" M 375.96893827013673 538.7098737519999 L 382.25170877013676 541.8512590019999 L 375.96893827013673 544.9926442519999 Z"/></g></g><g><g><rect fill="white" stroke="none" x="312.23099782457035" y="553.1602459019999" width="45.57766957238281" height="9.801121980000001"/></g><text fill="black" stroke="none" font-family="sans-serif" font-size="5pt" font-style="normal" font-weight="normal" text-decoration="normal" x="313.36189651457033" y="559.9456380419999" text-anchor="start" dominant-baseline="alphabetic">perceive_state</text></g><g><path fill="none" stroke="black" paint-order="fill stroke markers" d=" M 382.25170877013676 562.9613678819999 L 289.04451055138674 562.9613678819999" stroke-miterlimit="10" stroke-width="0.62827705" stroke-dasharray=""/><g transform="translate(287.7879564513867,562.9613678819999) translate(-287.7879564513867,-562.9613678819999)"><path fill="black" stroke="none" paint-order="stroke fill markers" d=" M 294.07072695138675 559.8199826319999 L 287.7879564513867 562.9613678819999 L 294.07072695138675 566.1027531319999 Z"/></g></g><g><g><rect fill="white" stroke="none" x="303.5336711644141" y="574.2703547819999" width="62.97232289269531" height="9.801121980000001"/></g><text fill="black" stroke="none" font-family="sans-serif" font-size="5pt" font-style="normal" font-weight="normal" text-decoration="normal" x="304.6645698544141" y="581.0557469219999" text-anchor="start" dominant-baseline="alphabetic">return modified state</text></g><g><path fill="none" stroke="black" paint-order="fill stroke markers" d=" M 287.7879564513867 584.0714767619999 L 380.99515467013674 584.0714767619999" stroke-miterlimit="10" stroke-width="0.62827705" stroke-dasharray=""/><g transform="translate(382.25170877013676,584.0714767619999) translate(-382.25170877013676,-584.0714767619999)"><path fill="black" stroke="none" paint-order="stroke fill markers" d=" M 375.96893827013673 580.9300915119999 L 382.25170877013676 584.0714767619999 L 375.96893827013673 587.2128620119998 Z"/></g></g><g><g><rect fill="white" stroke="none" x="284.71981581050784" y="595.3804636619999" width="16.700426530390626" height="9.801121980000001"/></g><text fill="black" stroke="none" font-family="sans-serif" font-size="5pt" font-style="normal" font-weight="normal" text-decoration="normal" x="285.8507145005078" y="602.1658558019999" text-anchor="start" dominant-baseline="alphabetic">state</text></g><g><path fill="none" stroke="black" paint-order="fill stroke markers" d=" M 382.25170877013676 605.1815856419998 L 205.1449034812695 605.1815856419998" stroke-miterlimit="10" stroke-width="0.62827705" stroke-dasharray="3.01572984"/><g transform="translate(203.8883493812695,605.1815856419998) translate(-203.8883493812695,-605.1815856419998)"><path fill="black" stroke="none" paint-order="stroke fill markers" d=" M 210.1711198812695 602.0402003919999 L 203.8883493812695 605.1815856419998 L 210.1711198812695 608.3229708919998 Z"/></g></g><g><g><rect fill="white" stroke="none" x="160.57202033215427" y="616.4905725419999" width="16.700426530390626" height="9.801121980000001"/></g><text fill="black" stroke="none" font-family="sans-serif" font-size="5pt" font-style="normal" font-weight="normal" text-decoration="normal" x="161.70291902215428" y="623.2759646819999" text-anchor="start" dominant-baseline="alphabetic">state</text></g><g><path fill="none" stroke="black" paint-order="fill stroke markers" d=" M 196.34902478126952 626.2916945219998 L 142.75199651342965 626.2916945219998" stroke-miterlimit="10" stroke-width="0.62827705" stroke-dasharray="3.01572984"/><g transform="translate(141.49544241342966,626.2916945219998) translate(-141.49544241342966,-626.2916945219998)"><path fill="black" stroke="none" paint-order="stroke fill markers" d=" M 147.77821291342966 623.1503092719998 L 141.49544241342966 626.2916945219998 L 147.77821291342966 629.4330797719998 Z"/></g></g><g><g><rect fill="white" stroke="none" x="93.52155799091015" y="637.6006814219999" width="16.700426530390626" height="9.801121980000001"/></g><text fill="black" stroke="none" font-family="sans-serif" font-size="5pt" font-style="normal" font-weight="normal" text-decoration="normal" x="94.65245668091015" y="644.3860735619999" text-anchor="start" dominant-baseline="alphabetic">state</text></g><g><path fill="none" stroke="black" paint-order="fill stroke markers" d=" M 133.95611781342967 647.4018034019998 L 71.04397879878125 647.4018034019998" stroke-miterlimit="10" stroke-width="0.62827705" stroke-dasharray="3.01572984"/><g transform="translate(69.78742469878125,647.4018034019998) translate(-69.78742469878125,-647.4018034019998)"><path fill="black" stroke="none" paint-order="stroke fill markers" d=" M 76.07019519878125 644.2604181519998 L 69.78742469878125 647.4018034019998 L 76.07019519878125 650.5431886519998 Z"/></g></g><g><g><rect fill="white" stroke="none" x="104.3820053102793" y="658.7107903019999" width="57.372438859492185" height="9.801121980000001"/></g><text fill="black" stroke="none" font-family="sans-serif" font-size="5pt" font-style="normal" font-weight="normal" text-decoration="normal" x="105.51290400027929" y="665.4961824419998" text-anchor="start" dominant-baseline="alphabetic">'(action arg1 arg2)'</text></g><g><path fill="none" stroke="black" paint-order="fill stroke markers" d=" M 69.78742469878125 668.5119122819998 L 195.09247068126953 668.5119122819998" stroke-miterlimit="10" stroke-width="0.62827705" stroke-dasharray=""/><g transform="translate(196.34902478126952,668.5119122819998) translate(-196.34902478126952,-668.5119122819998)"><path fill="black" stroke="none" paint-order="stroke fill markers" d=" M 190.06625428126952 665.3705270319998 L 196.34902478126952 668.5119122819998 L 190.06625428126952 671.6532975319998 Z"/></g></g><g><g><rect fill="white" stroke="none" x="264.38380964595706" y="679.8208991819998" width="57.372438859492185" height="9.801121980000001"/></g><text fill="black" stroke="none" font-family="sans-serif" font-size="5pt" font-style="normal" font-weight="normal" text-decoration="normal" x="265.51470833595704" y="686.6062913219998" text-anchor="start" dominant-baseline="alphabetic">'(action arg1 arg2)'</text></g><g><path fill="none" stroke="black" paint-order="fill stroke markers" d=" M 203.8883493812695 689.6220211619998 L 380.99515467013674 689.6220211619998" stroke-miterlimit="10" stroke-width="0.62827705" stroke-dasharray=""/><g transform="translate(382.25170877013676,689.6220211619998) translate(-382.25170877013676,-689.6220211619998)"><path fill="black" stroke="none" paint-order="stroke fill markers" d=" M 375.96893827013673 686.4806359119998 L 382.25170877013676 689.6220211619998 L 375.96893827013673 692.7634064119998 Z"/></g></g><g><g><rect fill="white" stroke="none" x="296.70949056138676" y="700.9310080619998" width="76.62068409875" height="9.801121980000001"/></g><text fill="black" stroke="none" font-family="sans-serif" font-size="5pt" font-style="normal" font-weight="normal" text-decoration="normal" x="297.84038925138674" y="707.7164002019998" text-anchor="start" dominant-baseline="alphabetic">return '(action arg1 arg2)'</text></g><g><path fill="none" stroke="black" paint-order="fill stroke markers" d=" M 382.25170877013676 710.7321300419998 L 289.04451055138674 710.7321300419998" stroke-miterlimit="10" stroke-width="0.62827705" stroke-dasharray=""/><g transform="translate(287.7879564513867,710.7321300419998) translate(-287.7879564513867,-710.7321300419998)"><path fill="black" stroke="none" paint-order="stroke fill markers" d=" M 294.07072695138675 707.5907447919998 L 287.7879564513867 710.7321300419998 L 294.07072695138675 713.8735152919998 Z"/></g></g><g><g><rect fill="white" stroke="none" x="316.856882834336" y="722.0411169419998" width="36.32589955285156" height="9.801121980000001"/></g><text fill="black" stroke="none" font-family="sans-serif" font-size="5pt" font-style="normal" font-weight="normal" text-decoration="normal" x="317.98778152433596" y="728.8265090819998" text-anchor="start" dominant-baseline="alphabetic">next_action</text></g><g><path fill="none" stroke="black" paint-order="fill stroke markers" d=" M 287.7879564513867 731.8422389219998 L 380.99515467013674 731.8422389219998" stroke-miterlimit="10" stroke-width="0.62827705" stroke-dasharray=""/><g transform="translate(382.25170877013676,731.8422389219998) translate(-382.25170877013676,-731.8422389219998)"><path fill="black" stroke="none" paint-order="stroke fill markers" d=" M 375.96893827013673 728.7008536719998 L 382.25170877013676 731.8422389219998 L 375.96893827013673 734.9836241719997 Z"/></g></g><g><g><rect fill="white" stroke="none" x="268.62592085201175" y="743.1512258219998" width="48.88821644738281" height="9.801121980000001"/></g><text fill="black" stroke="none" font-family="sans-serif" font-size="5pt" font-style="normal" font-weight="normal" text-decoration="normal" x="269.7568195420117" y="749.9366179619998" text-anchor="start" dominant-baseline="alphabetic">NEXT_ACTION</text></g><g><path fill="none" stroke="black" paint-order="fill stroke markers" d=" M 382.25170877013676 752.9523478019997 L 205.1449034812695 752.9523478019997" stroke-miterlimit="10" stroke-width="0.62827705" stroke-dasharray="3.01572984"/><g transform="translate(203.8883493812695,752.9523478019997) translate(-203.8883493812695,-752.9523478019997)"><path fill="black" stroke="none" paint-order="stroke fill markers" d=" M 210.1711198812695 749.8109625519998 L 203.8883493812695 752.9523478019997 L 210.1711198812695 756.0937330519997 Z"/></g></g><g><g><rect fill="white" stroke="none" x="114.90527496359961" y="764.2613347019998" width="36.32589955285156" height="9.801121980000001"/></g><text fill="black" stroke="none" font-family="sans-serif" font-size="5pt" font-style="normal" font-weight="normal" text-decoration="normal" x="116.0361736535996" y="771.0467268419998" text-anchor="start" dominant-baseline="alphabetic">next_action</text></g><g><path fill="none" stroke="black" paint-order="fill stroke markers" d=" M 196.34902478126952 774.0624566819997 L 71.04397879878125 774.0624566819997" stroke-miterlimit="10" stroke-width="0.62827705" stroke-dasharray=""/><g transform="translate(69.78742469878125,774.0624566819997) translate(-69.78742469878125,-774.0624566819997)"><path fill="black" stroke="none" paint-order="stroke fill markers" d=" M 76.07019519878125 770.9210714319997 L 69.78742469878125 774.0624566819997 L 76.07019519878125 777.2038419319997 Z"/></g></g><g><g><rect fill="white" stroke="none" x="112.71348724387305" y="785.3714435819998" width="40.709474992304685" height="9.801121980000001"/></g><text fill="black" stroke="none" font-family="sans-serif" font-size="5pt" font-style="normal" font-weight="normal" text-decoration="normal" x="113.84438593387304" y="792.1568357219998" text-anchor="start" dominant-baseline="alphabetic">'(reach-goal)'</text></g><g><path fill="none" stroke="black" paint-order="fill stroke markers" d=" M 69.78742469878125 795.1725655619997 L 195.09247068126953 795.1725655619997" stroke-miterlimit="10" stroke-width="0.62827705" stroke-dasharray=""/><g transform="translate(196.34902478126952,795.1725655619997) translate(-196.34902478126952,-795.1725655619997)"><path fill="black" stroke="none" paint-order="stroke fill markers" d=" M 190.06625428126952 792.0311803119997 L 196.34902478126952 795.1725655619997 L 190.06625428126952 798.3139508119997 Z"/></g></g><g><g><rect fill="white" stroke="none" x="272.7152915795508" y="806.4815524619997" width="40.709474992304685" height="9.801121980000001"/></g><text fill="black" stroke="none" font-family="sans-serif" font-size="5pt" font-style="normal" font-weight="normal" text-decoration="normal" x="273.8461902695508" y="813.2669446019997" text-anchor="start" dominant-baseline="alphabetic">'(reach-goal)'</text></g><g><path fill="none" stroke="black" paint-order="fill stroke markers" d=" M 203.8883493812695 816.2826744419997 L 380.99515467013674 816.2826744419997" stroke-miterlimit="10" stroke-width="0.62827705" stroke-dasharray=""/><g transform="translate(382.25170877013676,816.2826744419997) translate(-382.25170877013676,-816.2826744419997)"><path fill="black" stroke="none" paint-order="stroke fill markers" d=" M 375.96893827013673 813.1412891919997 L 382.25170877013676 816.2826744419997 L 375.96893827013673 819.4240596919997 Z"/></g></g><g><g><rect fill="white" stroke="none" x="313.7399165867774" y="827.5916613419997" width="42.55983204796875" height="9.801121980000001"/></g><text fill="black" stroke="none" font-family="sans-serif" font-size="5pt" font-style="normal" font-weight="normal" text-decoration="normal" x="314.87081527677736" y="834.3770534819997" text-anchor="start" dominant-baseline="alphabetic">'(reach-goal)' </text></g><g><path fill="none" stroke="black" paint-order="fill stroke markers" d=" M 382.25170877013676 837.3927833219997 L 289.04451055138674 837.3927833219997" stroke-miterlimit="10" stroke-width="0.62827705" stroke-dasharray=""/><g transform="translate(287.7879564513867,837.3927833219997) translate(-287.7879564513867,-837.3927833219997)"><path fill="black" stroke="none" paint-order="stroke fill markers" d=" M 294.07072695138675 834.2513980719997 L 287.7879564513867 837.3927833219997 L 294.07072695138675 840.5341685719997 Z"/></g></g><g><g><rect fill="white" stroke="none" x="231.31670416998045" y="848.7017702219997" width="21.503572892695313" height="9.801121980000001"/></g><text fill="black" stroke="none" font-family="sans-serif" font-size="5pt" font-style="normal" font-weight="normal" text-decoration="normal" x="232.44760285998046" y="855.4871623619997" text-anchor="start" dominant-baseline="alphabetic">DONE</text></g><g><path fill="none" stroke="black" paint-order="fill stroke markers" d=" M 280.24863185138673 858.5028922019997 L 205.1449034812695 858.5028922019997" stroke-miterlimit="10" stroke-width="0.62827705" stroke-dasharray="3.01572984"/><g transform="translate(203.8883493812695,858.5028922019997) translate(-203.8883493812695,-858.5028922019997)"><path fill="black" stroke="none" paint-order="stroke fill markers" d=" M 210.1711198812695 855.3615069519997 L 203.8883493812695 858.5028922019997 L 210.1711198812695 861.6442774519996 Z"/></g></g><g><g><rect fill="white" stroke="none" x="216.68948401617186" y="869.8118791019997" width="50.7580132003125" height="9.801121980000001"/></g><text fill="black" stroke="none" font-family="sans-serif" font-size="5pt" font-style="normal" font-weight="normal" text-decoration="normal" x="217.82038270617187" y="876.5972712419997" text-anchor="start" dominant-baseline="alphabetic">send report card</text></g><g><path fill="none" stroke="black" paint-order="fill stroke markers" d=" M 280.24863185138673 879.6130010819996 L 205.1449034812695 879.6130010819996" stroke-miterlimit="10" stroke-width="0.62827705" stroke-dasharray="3.01572984"/><g transform="translate(203.8883493812695,879.6130010819996) translate(-203.8883493812695,-879.6130010819996)"><path fill="black" stroke="none" paint-order="stroke fill markers" d=" M 210.1711198812695 876.4716158319997 L 203.8883493812695 879.6130010819996 L 210.1711198812695 882.7543863319996 Z"/></g></g><g><g><rect fill="white" stroke="none" x="81.54921005624219" y="890.9219879819997" width="53.71402211144531" height="9.801121980000001"/></g><text fill="black" stroke="none" font-family="sans-serif" font-size="5pt" font-style="normal" font-weight="normal" text-decoration="normal" x="82.68010874624218" y="897.7073801219997" text-anchor="start" dominant-baseline="alphabetic">return report card</text></g><g><path fill="none" stroke="black" paint-order="fill stroke markers" d=" M 196.34902478126952 900.7231099619996 L 21.719971542660154 900.7231099619996" stroke-miterlimit="10" stroke-width="0.62827705" stroke-dasharray=""/><g transform="translate(20.463417442660155,900.7231099619996) translate(-20.463417442660155,-900.7231099619996)"><path fill="black" stroke="none" paint-order="stroke fill markers" d=" M 26.746187942660157 897.5817247119996 L 20.463417442660155 900.7231099619996 L 26.746187942660157 903.8644952119996 Z"/></g></g></g><g/><g/><g/><g/><g/><g/></g></svg>